<?xml version="1.0" encoding="utf-8"?>
<svg xmlns="http://www.w3.org/2000/svg" viewBox="0.6022 1.934 144.8267 178.2315" width="144.8267px" height="178.2315px">
  <defs>
    <linearGradient id="z" x1="121.30617" x2="121.30617" y1="976.37823" y2="992.4245" gradientTransform="matrix(1 0 0 1.00011 0 -.10551)" gradientUnits="userSpaceOnUse" href="#a"/>
    <linearGradient id="a">
      <stop offset="0" stop-color="#666"/>
      <stop offset="1" stop-color="#333"/>
    </linearGradient>
    <linearGradient id="A" x1="110.96875" x2="110.96875" y1="976.29968" y2="992.375" gradientTransform="matrix(1.00399 0 0 1.00959 -1.49914 -9.36636)" gradientUnits="userSpaceOnUse" href="#a"/>
    <linearGradient id="B" x1="294.3429" x2="294.41818" y1="256.58133" y2="243.13852" gradientTransform="matrix(7.979 0 0 8.01241 -2383.56 -3106.47)" gradientUnits="userSpaceOnUse" href="#b"/>
    <linearGradient id="b">
      <stop offset="0" stop-color="#b3b3b3"/>
      <stop offset="1" stop-color="#e6e6e6"/>
    </linearGradient>
    <linearGradient id="C" x1="209.0625" x2="209.0625" y1="-765.46082" y2="-781.62268" gradientTransform="matrix(4 0 0 4 -875 1971.91)" gradientUnits="userSpaceOnUse" href="#c"/>
    <linearGradient id="c">
      <stop offset="0" stop-color="#fff" stop-opacity=".588235"/>
      <stop offset="1" stop-color="#fff" stop-opacity=".862745"/>
    </linearGradient>
    <linearGradient id="D" x1="78.821571" x2="144" y1="-1194.6378" y2="-1194.6378" gradientTransform="matrix(.37057 .37057 -.7071 .7071 -1492.7313 -368.48139)" gradientUnits="userSpaceOnUse" href="#d"/>
    <linearGradient id="d">
      <stop offset="0" stop-opacity="0"/>
      <stop offset="0.4931"/>
      <stop offset="1" stop-opacity="0"/>
    </linearGradient>
    <linearGradient id="E" x1="30.743851" x2="144" y1="-1194.6378" y2="-1194.6378" gradientTransform="matrix(.37057 .37057 -.7071 .7071 -1492.7313 -351.48139)" gradientUnits="userSpaceOnUse" href="#d"/>
    <linearGradient id="F" x1="-17" x2="144" y1="-1194.6378" y2="-1194.6378" gradientTransform="matrix(.67702 0 0 .99998 -1170.1404 1881.6223)" gradientUnits="userSpaceOnUse" href="#d"/>
    <linearGradient id="G" x1="-17" x2="144" y1="-1194.6378" y2="-1194.6378" gradientTransform="matrix(.34162 0 0 .99998 619.80984 2262.2704)" gradientUnits="userSpaceOnUse" href="#d"/>
    <linearGradient id="H" x1="152" x2="113.88176" y1="-1192.6378" y2="-1230.7561" gradientTransform="translate(622.68524 -608.22844) scale(.39024)" gradientUnits="userSpaceOnUse" href="#e"/>
    <linearGradient id="e">
      <stop offset="0"/>
      <stop offset="0.4546" stop-opacity=".360784"/>
      <stop offset="1" stop-opacity="0"/>
    </linearGradient>
    <linearGradient id="I" x1="152" x2="113.88176" y1="-1192.6378" y2="-1230.7561" gradientTransform="translate(-659.31944 -608.22844) scale(.39024)" gradientUnits="userSpaceOnUse" href="#e"/>
    <linearGradient id="J" x1="364.8671" x2="377.85162" y1="300.81857" y2="287.83405" gradientTransform="matrix(1 0 0 -1 -1049.0023 -880.58744)" gradientUnits="userSpaceOnUse" href="#f"/>
    <linearGradient id="f">
      <stop offset="0"/>
      <stop offset="1" stop-opacity="0"/>
    </linearGradient>
    <linearGradient id="K" x1="30.743851" x2="144" y1="-1194.6378" y2="-1194.6378" gradientTransform="matrix(.37057 .37057 -.7071 .7071 -1494.7313 -346.48139)" gradientUnits="userSpaceOnUse" href="#g"/>
    <linearGradient id="g">
      <stop offset="0" stop-opacity="0"/>
      <stop offset="0.4931"/>
      <stop offset="1" stop-opacity="0"/>
    </linearGradient>
    <linearGradient id="L" x1="-17" x2="144" y1="-1194.6378" y2="-1194.6378" gradientTransform="matrix(.52172 0 0 1 -674.13295 121.98956)" gradientUnits="userSpaceOnUse" href="#d"/>
  </defs>
  <g transform="matrix(1.3925809860229492, 0, 0, 1.3925809860229492, 965.6599731445312, 1659.98681640625)" style="">
    <g transform="translate(-642.00234 -24.010444)">
      <g fill="url(#y)" transform="matrix(7.99974 0 0 7.9969 -938.968 -8974.56)">
        <path fill="url(#z)" d="M111 977.12331v14.50168c.00005.52364.22641.74996.74999.75001H123.25c.52358-.00005.74994-.22637.74999-.75001v-8.98088c.006-.26409-.0975-.52903-.28125-.71883l-5.27042-5.2707c-.18978-.18372-.45469-.2874-.71875-.28128h-5.97958c-.51898 0-.75228.43576-.74999.75001z" color="#000" font-family="Andale Mono" font-weight="400" overflow="visible" style="text-indent:0;text-align:start;line-height:normal;text-transform:none;marker:none"/>
        <path fill="url(#A)" d="M120.32938 976.3765c-.33282.10664-.44483.61349-.18825.85184l3.01199 3.02879c.27825.26531.83246.0383.84712-.34705v-3.02878c-.00003-.26431-.23916-.50477-.502-.5048h-3.01199c-.0519-.008-.105-.008-.15687 0z" color="#000" font-family="Andale Mono" font-weight="400" overflow="visible" style="text-indent:0;text-align:start;line-height:normal;text-transform:none;marker:none"/>
      </g>
      <path fill="url(#B)" d="M-44.99976-1160.577v116h91.99832v-72.8752l-.62496-.6248-41.74924-42-.49996-.5h-49.12416z" color="#000" font-family="Andale Mono" font-weight="400" overflow="visible" style="text-indent:0;text-align:start;line-height:normal;text-transform:none;marker:none"/>
      <path fill="url(#C)" d="M-40.99984-1156.577H1.2338l41.7636 42v66h-83.99724v-108z"/>
    </g>
    <path fill="url(#D)" d="m-618.29514-1183.5175 23.6621 23.6621-.7072.7072-23.6621-23.6622z" color="#000" opacity=".25" overflow="visible" style="marker:none"/>
    <path fill="url(#E)" d="m-636.29514-1184.5175 41.6621 41.6621-.7072.7072-41.6621-41.6622z" color="#000" opacity=".25" overflow="visible" style="marker:none"/>
    <path fill="url(#F)" d="M-1181.6483 687.00238h109v1h-109z" color="#000" opacity=".25" overflow="visible" style="marker:none" transform="rotate(90)"/>
    <path fill="url(#G)" d="M614.00232 1067.6482h55v1h-55z" color="#000" opacity=".25" overflow="visible" style="marker:none" transform="scale(-1)"/>
    <path fill="url(#H)" d="M650.00232-1105.6483h32v32h-32z" color="#000" opacity=".15" overflow="visible" style="marker:none" transform="scale(-1 1)"/>
    <path fill="url(#I)" d="M-632.00232-1105.6483h32v32h-32z" color="#000" opacity=".15" overflow="visible" style="marker:none"/>
    <path fill="url(#J)" d="M-684.00215-1156.5874v-25h25.00001v1h-24.00001v24z" color="#000" opacity=".1" overflow="visible" style="marker:none"/>
    <path fill="url(#K)" d="m-638.29514-1179.5175 41.6621 41.6621-.7072.7072-41.6621-41.6622z" color="#000" opacity=".1" overflow="visible" style="marker:none"/>
    <path fill="url(#L)" d="M-683.0022-1072.6483h83.997238v1.0000159H-683.0022z" color="#000" opacity=".2" overflow="visible" style="marker:none"/>
  </g>
</svg>