<?xml version="1.0" encoding="utf-8"?>
<svg xmlns="http://www.w3.org/2000/svg" viewBox="0.2989 0.2598 327.45 222.005" width="327.45px" height="222.005px">
  <a href="http://free.arinco.org/mail/mailfence/" transform="matrix(1, 0, 0, 1, 21.4249324798584, 124.22978973388672)">
    <path d="M 280.854 -123.85 C 280.737 -123.62 280.637 -123.39 280.502 -123.17 L 191.704 30.635 C 188.622 35.979 183.026 38.967 177.272 38.967 C 174.353 38.967 171.485 38.197 168.958 36.735 C 161.001 32.135 158.27 21.952 162.864 13.989 L 242.516 -123.97 L 44.651 -123.97 L 82.549 -63.315 L 63.688 -30.655 L 5.417 -123.9 C -9.285 -123.26 -21.126 -111.07 -21.126 -96.215 L -21.126 70.285 C -21.126 84.775 -9.864 96.746 4.345 97.918 C 4.462 97.689 4.562 97.461 4.691 97.238 L 93.49 -56.568 C 98.09 -64.534 108.273 -67.261 116.236 -62.665 C 124.199 -58.065 126.929 -47.885 122.33 -39.919 L 42.682 98.035 L 240.547 98.035 L 202.742 37.537 L 221.597 4.871 L 279.775 97.976 C 294.482 97.331 306.324 85.138 306.324 70.285 L 306.324 -96.215 C 306.325 -110.71 295.057 -122.68 280.854 -123.85 Z M 121.772 39.734 C 118.853 39.734 115.985 38.964 113.458 37.502 C 105.495 32.902 102.77 22.719 107.364 14.756 L 148.989 -57.338 C 153.589 -65.304 163.778 -68.028 171.735 -63.432 C 179.698 -58.835 182.428 -48.652 177.829 -40.689 L 136.204 31.408 C 133.122 36.752 127.526 39.734 121.772 39.734 Z" fill="#2b81bd"/>
  </a>
</svg>