<?xml version="1.0" encoding="utf-8"?>
<svg xmlns="http://www.w3.org/2000/svg" viewBox="1.34 1.5811 171.555 139.1859" width="171.555px" height="139.1859px">
  <defs>
    <linearGradient id="paint0_linear_11985_190892" x1="265.975" y1="141.754" x2="244.3" y2="-73.4041" gradientUnits="userSpaceOnUse" gradientTransform="matrix(1.618445, 0, 0, 1.618445, 1.340232, 1.580754)">
      <stop offset="0.271" stop-color="#E3D9FF"/>
      <stop offset="1" stop-color="#7341FF"/>
    </linearGradient>
    <linearGradient id="paint1_linear_11985_190892" x1="62.6346" y1="86.7984" x2="18.553" y2="-87.2799" gradientUnits="userSpaceOnUse" gradientTransform="matrix(1.618445, 0, 0, 1.618445, 1.340232, 1.580754)">
      <stop stop-color="#E3D9FF"/>
      <stop offset="1" stop-color="#7341FF"/>
    </linearGradient>
    <radialGradient id="paint2_radial_11985_190892" cx="0" cy="0" r="1" gradientUnits="userSpaceOnUse" gradientTransform="matrix(200.062515, 0, 0, 202.37851, 172.147731, 18.618439)">
      <stop offset="0.5561" stop-color="#6D4AFF"/>
      <stop offset="0.9944" stop-color="#AA8EFF"/>
    </radialGradient>
  </defs>
  <path fill-rule="evenodd" clip-rule="evenodd" d="M 136.419 27.727 L 136.419 140.767 L 155.157 140.767 C 164.955 140.767 172.895 132.717 172.895 122.806 L 172.895 5.58 C 172.895 2.194 169.004 0.349 166.426 2.513 L 136.419 27.727 Z" fill="url(#paint0_linear_11985_190892)" style="stroke-width: 1px;" transform="matrix(1, 0, 0, 1, -2.842170943040401e-14, 0)"/>
  <path fill-rule="evenodd" clip-rule="evenodd" d="M 110.282 49.715 L 76.049 80.338 C 70.211 85.551 61.499 85.675 55.522 80.639 L 1.34 35.032 L 1.34 5.598 C 1.34 2.212 5.232 0.349 7.809 2.513 L 75.785 59.644 C 82.359 65.178 91.895 65.178 98.468 59.644 L 110.282 49.715 Z" fill="url(#paint1_linear_11985_190892)" style="stroke-width: 1px;" transform="matrix(1, 0, 0, 1, -2.842170943040401e-14, 0)"/>
  <path d="M 136.419 27.745 L 110.282 49.715 L 110.3 49.715 L 76.049 80.338 C 70.211 85.551 61.499 85.675 55.522 80.639 L 1.34 35.032 L 1.34 122.806 C 1.34 132.717 9.282 140.767 19.08 140.767 L 136.419 140.767 L 136.419 27.745 Z" fill="url(#paint2_radial_11985_190892)" style="stroke-width: 1px;" transform="matrix(1, 0, 0, 1, -2.842170943040401e-14, 0)"/>
</svg>