<?xml version="1.0" encoding="utf-8"?>
<svg xmlns="http://www.w3.org/2000/svg" viewBox="14.1835 9.7619 205.463 205.3509" width="205.463px" height="205.3509px">
  <path d="M 305.76 89.504 L 264.829 89.504 C 264.318 89.504 263.865 89.674 263.467 90.071 L 161.736 188.623 C 160.771 189.531 159.125 189.248 158.614 187.999 L 129.037 90.582 C 128.753 89.844 128.072 89.39 127.277 89.39 L 85.381 89.39 C 84.529 89.39 83.791 89.958 83.507 90.753 L 17.598 306.193 C 17.201 307.442 18.166 308.634 19.472 308.634 L 62.446 308.634 C 63.298 308.634 64.036 308.066 64.319 307.271 L 106.045 171.025 C 106.613 169.322 108.941 169.151 109.679 170.854 L 138.177 236.082 C 138.461 236.764 139.142 237.275 139.937 237.275 L 163.156 237.275 C 163.666 237.275 164.121 237.104 164.518 236.707 L 233.266 169.265 C 234.685 167.845 237.013 169.322 236.445 171.195 L 195.117 306.249 C 194.95 306.832 195.069 307.46 195.438 307.941 C 195.808 308.423 196.383 308.7 196.99 308.69 L 240.021 308.69 C 240.873 308.69 241.611 308.123 241.895 307.328 L 307.803 91.945 C 307.97 91.3619 307.851 90.7342 307.482 90.2529 C 307.113 89.7717 306.537 89.4938 305.931 89.504 L 305.76 89.504 Z" transform="matrix(0.6673539876937866, 0, 0, 0.6673539876937866, 14.18346118927002, 9.107123374938965)" fill="#850122"/>
  <path d="M 24.522 4.35 L 76.863 57.315 C 78.113 58.565 79.305 58.848 81.178 58.848 L 305.985 58.848 C 307.517 58.848 308.369 56.861 306.893 55.442 L 254.949 2.873 C 252.678 0.66 252.508 1 250.01 1 L 25.714 1 C 24.749 1 23.954 1.795 23.954 2.76 C 23.954 2.817 23.898 3.611 24.579 4.293 C 24.522 4.293 24.522 4.236 24.579 4.293 L 24.522 4.35 Z" transform="matrix(0.6673539876937866, 0, 0, 0.6673539876937866, 14.18346118927002, 9.107123374938965)" fill="#850122"/>
  <path d="M 52.91 75.482 L 3.18 25.979 C 2.555 25.411 1.817 25.468 1.76 25.468 C 0.795 25.468 0 26.263 0 27.228 L 0 244.882 C 0 245.847 0.795 246.642 1.76 246.642 C 2.498 246.642 3.18 246.131 3.406 245.449 C 3.463 245.393 3.463 245.279 3.52 245.166 C 3.52 245.109 3.633 244.655 3.633 244.598 L 53.817 80.023 C 54.442 78.263 54.442 77.015 52.909 75.482" transform="matrix(0.6673539876937866, 0, 0, 0.6673539876937866, 14.18346118927002, 9.107123374938965)" fill="#850122"/>
</svg>